<?xml version="1.0" encoding="UTF-8"?>
<svg id="Calque_1" xmlns="http://www.w3.org/2000/svg" version="1.1" viewBox="0 0 1285.51 724.97">
  <!-- Generator: Adobe Illustrator 30.2.1, SVG Export Plug-In . SVG Version: 2.1.1 Build 1)  -->
  <defs>
    <style>
      .st0 {
        fill: #0090d7;
      }

      .st1 {
        fill: #2a2f80;
      }
    </style>
  </defs>
  <g>
    <path class="st1" d="M449.58,399.19v70.1h-17.08v-42.04l-15.68,42.04h-13.78l-15.78-42.14v42.14h-17.08v-70.1h20.17l19.67,48.53,19.48-48.53h20.07Z"/>
    <path class="st1" d="M486.87,465.4c-5.49-3.06-9.85-7.34-13.08-12.84-3.23-5.49-4.84-11.67-4.84-18.52s1.61-13.02,4.84-18.48c3.23-5.46,7.59-9.72,13.08-12.78,5.49-3.06,11.53-4.59,18.13-4.59s12.63,1.54,18.13,4.59c5.49,3.06,9.82,7.33,12.98,12.78,3.16,5.46,4.74,11.62,4.74,18.48s-1.6,13.03-4.79,18.52c-3.2,5.49-7.52,9.77-12.98,12.84-5.46,3.06-11.48,4.59-18.07,4.59s-12.63-1.53-18.13-4.59ZM518.43,448.82c3.36-3.73,5.04-8.66,5.04-14.78s-1.68-11.13-5.04-14.83c-3.36-3.7-7.84-5.54-13.43-5.54s-10.17,1.83-13.53,5.49c-3.36,3.66-5.04,8.62-5.04,14.88s1.68,11.13,5.04,14.83,7.87,5.55,13.53,5.55,10.07-1.87,13.43-5.59Z"/>
    <path class="st1" d="M571.9,467.49c-4.06-1.66-7.31-4.13-9.74-7.39-2.43-3.26-3.71-7.19-3.84-11.78h18.17c.27,2.59,1.16,4.58,2.7,5.94,1.53,1.37,3.53,2.05,5.99,2.05s4.52-.58,5.99-1.74c1.46-1.16,2.2-2.78,2.2-4.84,0-1.73-.58-3.16-1.75-4.3s-2.59-2.06-4.29-2.8c-1.7-.73-4.11-1.56-7.24-2.49-4.52-1.4-8.22-2.8-11.09-4.2-2.86-1.4-5.32-3.46-7.39-6.19-2.07-2.73-3.1-6.29-3.1-10.68,0-6.52,2.37-11.63,7.09-15.33,4.73-3.7,10.88-5.55,18.47-5.55s13.95,1.85,18.68,5.55c4.72,3.7,7.25,8.84,7.59,15.43h-18.48c-.13-2.27-.96-4.05-2.49-5.34-1.53-1.3-3.49-1.95-5.89-1.95-2.06,0-3.73.55-4.99,1.64-1.27,1.1-1.9,2.69-1.9,4.75,0,2.26,1.06,4.02,3.2,5.29,2.13,1.27,5.46,2.63,9.99,4.09,4.52,1.53,8.2,2.99,11.03,4.39,2.83,1.4,5.28,3.43,7.34,6.09,2.06,2.66,3.09,6.09,3.09,10.29s-1.02,7.62-3.05,10.88c-2.03,3.26-4.98,5.86-8.84,7.79-3.86,1.93-8.42,2.89-13.68,2.89s-9.72-.83-13.78-2.49Z"/>
    <path class="st1" d="M675.35,456.91h-26.17l-4.2,12.38h-17.87l25.36-70.1h19.77l25.36,70.1h-18.07l-4.2-12.38ZM670.96,443.73l-8.69-25.67-8.59,25.67h17.28Z"/>
    <path class="st1" d="M778.02,469.29h-17.07l-28.56-43.24v43.24h-17.08v-70.1h17.08l28.56,43.44v-43.44h17.07v70.1Z"/>
    <path class="st1" d="M817.46,412.87v14.18h22.87v13.19h-22.87v15.38h25.86v13.68h-42.94v-70.1h42.94v13.68h-25.86Z"/>
    <path class="st1" d="M875.98,467.49c-4.06-1.66-7.31-4.13-9.74-7.39-2.43-3.26-3.71-7.19-3.84-11.78h18.17c.27,2.59,1.16,4.58,2.7,5.94,1.53,1.37,3.53,2.05,5.99,2.05s4.52-.58,5.99-1.74c1.46-1.16,2.2-2.78,2.2-4.84,0-1.73-.58-3.16-1.75-4.3-1.16-1.13-2.59-2.06-4.29-2.8-1.7-.73-4.11-1.56-7.24-2.49-4.52-1.4-8.22-2.8-11.09-4.2-2.86-1.4-5.32-3.46-7.39-6.19-2.07-2.73-3.1-6.29-3.1-10.68,0-6.52,2.37-11.63,7.09-15.33,4.73-3.7,10.88-5.55,18.47-5.55s13.95,1.85,18.68,5.55c4.72,3.7,7.25,8.84,7.59,15.43h-18.48c-.13-2.27-.96-4.05-2.49-5.34-1.53-1.3-3.49-1.95-5.89-1.95-2.06,0-3.73.55-4.99,1.64-1.27,1.1-1.9,2.69-1.9,4.75,0,2.26,1.06,4.02,3.2,5.29,2.13,1.27,5.46,2.63,9.99,4.09,4.52,1.53,8.2,2.99,11.03,4.39,2.83,1.4,5.28,3.43,7.34,6.09,2.06,2.66,3.09,6.09,3.09,10.29s-1.02,7.62-3.05,10.88c-2.03,3.26-4.98,5.86-8.84,7.79-3.86,1.93-8.42,2.89-13.68,2.89s-9.72-.83-13.78-2.49Z"/>
  </g>
  <g>
    <path class="st0" d="M633.78,230.43v71.77c9.91,0,17.94-8.03,17.94-17.94v-71.77c-9.91,0-17.94,8.03-17.94,17.94Z"/>
    <path class="st1" d="M687.61,203.52v125.6c9.91,0,17.94-8.03,17.94-17.94v-125.6c-9.91,0-17.94,8.03-17.94,17.94Z"/>
    <path class="st1" d="M579.96,203.52v125.6c9.91,0,17.94-8.03,17.94-17.94v-125.6c-9.91,0-17.94,8.03-17.94,17.94Z"/>
  </g>
</svg>