<?xml version="1.0" encoding="UTF-8"?>
<svg xmlns="http://www.w3.org/2000/svg" version="1.1" xmlns:xlink="http://www.w3.org/1999/xlink" viewBox="0 0 340.16 198.43">
  <!-- Generator: Adobe Illustrator 30.2.1, SVG Export Plug-In . SVG Version: 2.1.1 Build 1)  -->
  <defs>
    <style>
      .st0, .st1 {
        fill: #f08443;
      }

      .st2 {
        fill: #fff;
      }

      .st2, .st3, .st4, .st1, .st5, .st6, .st7 {
        fill-rule: evenodd;
      }

      .st8, .st6 {
        fill: #3c3c3b;
      }

      .st3 {
        fill: url(#Dégradé_sans_nom_10);
      }

      .st4 {
        fill: #feffff;
      }

      .st9, .st5 {
        fill: #ea5e0b;
      }

      .st10 {
        font-family: CenturyGothic, 'Century Gothic';
        font-size: 14px;
      }

      .st10, .st11 {
        fill: #e40521;
      }

      .st12 {
        display: none;
      }

      .st7 {
        fill: #1d1e1b;
      }
    </style>
    <linearGradient id="Dégradé_sans_nom_10" data-name="Dégradé sans nom 10" x1="23.27" y1="100.51" x2="316.89" y2="100.51" gradientUnits="userSpaceOnUse">
      <stop offset="0" stop-color="#019a39"/>
      <stop offset=".03" stop-color="#019a39"/>
      <stop offset=".3" stop-color="#feeb15"/>
      <stop offset=".66" stop-color="#e30a22"/>
      <stop offset=".7" stop-color="#ba1e42"/>
      <stop offset=".75" stop-color="#913462"/>
      <stop offset=".79" stop-color="#6f457e"/>
      <stop offset=".84" stop-color="#545393"/>
      <stop offset=".89" stop-color="#415da2"/>
      <stop offset=".94" stop-color="#3663ab"/>
      <stop offset="1" stop-color="#3365ae"/>
    </linearGradient>
  </defs>
  <g id="Balayage_voiries_-_vegen_van_wegen">
    <polygon class="st4" points="152.16 36.47 159.71 31.7 174.66 35.4 189.13 51.75 208.92 57.49 167.31 88.97 153.11 77.02 152.16 36.47"/>
    <path class="st3" d="M247.11,103.66c-.08-.32-.39-.02-.45.23-.08.31-.4.36-.45.69-.7.3-1.54.43-2.27.69-.52-.17-1.16-.2-1.59-.46-.42.03-.14.78-.45.92-1.47.19-2.25-.31-3.17-.69-.64.04-1.55-.2-1.59.46-.73-.37-1.22-.11-2.04,0-.5.04-.72-.19-.68-.69-.81.4-1.9.53-2.27,1.38-.79.11-1.47.34-2.49.23,0-.22-.28-.18-.45-.23-.14-.48-.57-.66-.46-1.38-1.8.39-2.01-1.05-3.4-.46v-.92c-1.74-.15-2.27.78-3.85.23-.23-.31-.21-.86-.68-.92-.48.07-.97.28-1.36.46-.15.07-.49.12-.68.23-.2.13-.18.41-.45.46-.73.29-.17-.74-.9-.46-.39-.52-.67-1.16-1.13-1.61h-.68c-.35-.03-.08.51-.22.69-.12.14-.56.09-.68.23-.26.3-.07,1.01-.91.92v.92h-1.81c-.45-.35.15-.43,0-.92-.14-.42-1.26-.62-.46-1.38-.77.07-.99,1.09-1.59,1.61-.38,0-.58-.17-.68-.46-.22.3-.47.62-1.36.46.24-.96-.48-1.56,0-2.07h-1.14c-.5.03-.09.97-.22,1.38-.67.37-1.23.74-2.05.69-.68-.04-1.15-.67-1.81-.69.03-.41-.28-.48-.23-.92-.83.3-1.75.52-2.94.46-.1-.44-.49-.57-.45-1.15-.27-.06-.33.41-.45.46-.19.08-.51-.1-.68,0-.13.08-.12.38-.22.46-.08.06-.4-.08-.45,0-.6.74-1.98.44-3.18,0-.17-.2-.24-.52-.23-.92-1.13.15-1.28,1.3-2.94.92.19-.73-.36-.71-.45-1.15-.72.26-.55-.36-.91-.46-.85-.21-.55.75-.68,1.15-.2.57-.43.94-.45,1.38-.81.1-1.21.61-2.27.46-.5-.8-.93-1.65-.9-2.99-.56.02-.7.43-1.13,0-.82,0-.48,1.19-1.58.92-.29-.3-.29-.85,0-1.15-.99.31-.82-.55-1.36-.69-.44.4-.48,1.2-.45,2.07-.37.04-.76-.06-1.13,0-.54.09-.79.62-1.59.46-.59.33-.55-.58-.68-.69-.07-.07-.39.08-.45,0-.14-.17-.17-.44-.45-.46-.28-.08-.11.38-.23.46-.16.11-.52-.1-.68,0-.2.11-.22.6-.68.46-.96.05-1.15-.67-1.82-.92-.53,0-.67.39-1.36.23-.42.44.14.42,0,1.15-1.61-.25-1.19,1.55-2.95,1.15-.37-1.51-.9-3.21-.45-4.36h-1.13c-.86.49.22,1.7-.91,2.07-.86.34-.44-.63-1.13-.46-.18-.21-.24-.52-.23-.92-.71.1-.32.48-1.13.69-.23.05-.48.32-.68.46-.26.18-.58.28-.68.69-1.01-.18-1.36.31-2.27.23-.1-.28-.29-.47-.68-.46v-2.07c-.03-.43-.77-.14-.9-.46-.21.27-1.1,1-.45,1.38-.44.49-1.16.15-1.81.23-.91.11-1.87.41-2.49.69.1.36.71.2.45.92-1.02-.11-1.2.62-1.59,1.15-.34-.22-.61.21-.68.23-1.09.15-1.94-.42-2.94-.46-.89-.03-1.54.33-2.49.23,0-.46-.62-.3-.45-.92.43-.2-.24-.14-.22-.46-.21.17-.35.42-.46.69-.05.25-.45.16-.45.46-1.14-.02-1.88.4-3.17.23-.3-.46-.53-1-1.14-1.15-.96.17-.99,1.3-2.49.92-.24-.09-.08-.49-.23-.69-.22-.31-.58-.23-.91-.46v-1.15c-1.03.26-1.1,1.49-1.81,2.06-.6.22-1.94.45-2.49,0-.17-.62.45-.46.45-.92-.53,0,.08-.63.45-.46-.24-.55-2.02-1.1-2.27-.23-.16.63,1.07-.17.91.46.22.62-.48.27-.68.46-.26.25,0,.09,0,.46,0,.5-.44.17-1.13.46-.26.11-.38.44-.68.46-.4.04-1.06-.35-1.59-.46-.35-.07-.87.16-.91-.23-.69.45-1.64.64-2.27,1.15-.82-.24-1.44-.68-2.04-1.15-.15-.84.15-1.22.45-1.61-1.41-.43-1.16.81-1.81,1.15-1.29.23-1.3-.82-1.81-1.38-.59.32-1.5.31-2.04.69.07.54.36.87.23,1.61-.64.36-2.53.36-3.17,0,.03-.59.13-1.1.45-1.38-.33-.35-.91-.45-.68-1.38-.47.06-.45.61-.68.92-.72-.55-2.17.84-3.17,0-.09.55.41.5.22,1.15-.71-.1-1.01.2-.9.92-.8-.54-1.24.62-1.81.69-1.1.15-1.94-.47-2.94-.92,0-.61-.09-1.31.22-1.61-.08-.41-.42.15-.91.23-.51.09-1.07-.06-1.58,0-.13-.48-.57-.66-.45-1.38-1.06,0-1.51.62-1.59,1.61-.67.24-1.64.17-2.04.69.03.57.43.71,0,1.15-.65-.03-1.48.13-1.81-.23-.16-.7.39-.67.23-1.38.06-.82-.68-.84-.68-1.61-.32,0-.13.44-.23.69-.05.11-.43.38-.45.46-.18.63-.06,1.37-.23,2.07-.9-.15-.91.61-1.81.46-.1-.21-.2-.41-.45-.46-.32-1.24.61-1.22.68-2.07-.08-.3-.4-.36-.46-.69-1.16.97-2.14,2.12-3.39,2.99h-1.59c.12-.82-.19-1.18-.68-1.38-1.11.03-1.32.97-2.27,1.15-1.07-.07-1.34-.94-1.82-1.61-.48.23-1.01,1.02-1.58.46-.53,0,.09.63.46.46-.48.66-1.46.82-2.5.92-.07-.14-.56-.89,0-.92-.16-.53-1.19-.17-.9-1.15-.8.27-1.44.69-1.36,1.84-.55-.09-.49.42-1.13.23.07-.28-.37-.11-.45-.23-.31-.44.59-.53,0-.92h-2.26c-1.04.48-.98,2.07-2.72,1.84,0-.23-.28-.18-.46-.23-.31-.3-.14-1.09-.45-1.38-.61-.16-.44.47-.68.69-.55.09-.49-.42-1.13-.23-.28.75.73.18.45.92-.75.01-1.13.39-2.04.23-.82.22-.19-1.03-.91-.92-.58.02-.36.86-.68,1.15-.48-.11-.43.33-.45.69-.93-.42-1.15.75-1.81.92-.1.02-.37-.06-.45,0-.1.08.07.55-.23.46-.65.2-.55-.23-.91-.46-.11-.07-.28,0-.22-.23-1.13-.07-2.08.04-2.95.23-.23-.41-.58-.7-.9-1.15-.06-.08.07-.4,0-.46-.24-.2-.5-.42-.91-.69-.44.09-.18.89-.91.69,0,.46.62.29.45.92-.31-.04-.71.23-.91.46-.07.08.08.4,0,.46-.12.1-.34.12-.45.23-.42.4-.9.8-1.36,1.15h-.91c-.73.21-.32-.75-.68-.92-.67,0-.77.6-1.36.69-2.93-.29-4.61.68-7.25.69-.17-.2-.24-.52-.22-.92-.47-.08-.71.38-1.13.46-1.39.25-3.06-.45-4.08.23-.55.13-.51.87-.68,1.38-1.14.52-2.6.05-3.85,0-.61-.16-.44.47-.68.69-.73-.13-1.05.16-1.59.23-.84.25-.64-.57-1.36-.46-.99,0-3.79,1.22-4.72,1.28.23-.31.25-.61.11-.61-1.49,0-.54-.66-.59-1,0,.04.78-.04.94-.17.16-.13-3.73-1.93-1.38-1.76-.05,0-.15.12,0,0,.19-.16,1.69-1.66,1.02-1.96-2.17-.97-1.01-2.92-1.85-4.39-.79-1.38,4.16.42,3.98-1.96,1.34-.45,2.76-.26,4.08-.46.49-.08,1.39-.19,1.81-.46.33-.22.63-.01,1.36-.23.76-.22,1.48-.79,2.27-.92.97-.16,1.93.09,2.94,0,.54-.05,1.04-.38,1.59-.46,1.48-.21,3.13.23,4.76-.23.38-.38,1.01-.5,1.36-.92,2.46.12,4.11-.58,6.57-.46,1.06-.8,3.07-1.23,4.76-.69.67-.08,1.12-.4,1.36-.92.61.59,2.41.52,3.62.23.82-.2,2.33-.07,3.62-.23.61-.07,1.05-.39,1.58-.46,1.52-.18,2.89.28,3.85-.69,2.09.71,4.76-.6,7.02-.23.52.08.82.4,1.36.46,1.38-.18,2.76-1.17,4.3-.46.43.44.02.58,0,1.15h1.59c.16-.62-.47-.44-.68-.69.29-.85,1.38-.9,2.26-1.15-.03.35.5.08.68.23.11.08-.06.56.23.46.7-.06,1.02-.5,1.58-.69.52.02,1.13-.02,1.82,0,.47,0,1.18-.21,1.36.23.78-.36,1.68-1.01,2.72-.92.91.07,1.3.69,2.04.92.68.21.67-.34,1.13-.46.45-.12,1.15-.47,1.81-.46.74,0,1.18.57,2.04.46.07.53-.04.88-.23,1.15.47.16.61-.24.91-.23.61.02.62.62,1.36.69.32-1.17-1.23-.44-.9-1.61,1.15-.2,1.4-.2,2.04.46.46.16.49-.37.68-.46.25-.13.69.15.68-.23,3-.05,4.38-.27,7.93,0,.12.18.24.37.22.69.43-.02.16-.76.68-.69,1.06-.24,1.29.38,1.81.69-.12-.18-.24-.38-.23-.69.84-.12,1.26-.66,2.04-.23.9-.17,1.7-.77,2.72-.69.64.05,1.21.55,1.82.69,1.43.13,3.06-1.14,4.08,0,.47.17.51-.37.91-.46,1.21-.28,2.55.49,3.62.69-.02.33-.04.65.23.69.93.02,1.03-.79,1.36-1.38,1.92-.26,2.72.61,3.85,1.15.58-.06-.31-.4,0-.92.99-.26,3.18-1.08,3.4.46,1.88-1.9,5.52-.31,8.38-.46-.37.79.03.69.45,1.15.42-.03.14-.78.45-.92.57.1,1.01-.63,1.58-.69.34-.03.42.16.68.23.14.04.31-.04.45,0,.14.03,1.21.2,1.36.69.73-.34,1.34-.79,2.49-.69.52-.39,1.15-.68,1.59-1.15.57-.04.7.36,1.13.46,1.46.18,2.23-.34,3.63-.23.83-.22,1.12-1.01,1.81-1.38.89.09,1.3.67,1.58,1.38.39-.01.59.17.68.46.6-.24,1.74-.44,2.04.23.54-.07.86-.36,1.59-.23.18.51.48.89.45,1.61.22.47.87.49,1.59.46.64-.23-.33-.62.23-.92.91-.49,1.8.06,2.71.23.37.17-.05,1.12.68.92.5-.04-.29-.58,0-1.15,1.37.22,2.28-.93,3.4-.23.15.1.31.36.45.46.28.19.84.24.9.69.4-.06.52-.4.46-.92.56.03.7-.36,1.13-.46,1.32-.03,2.39,1.17,3.63,1.15.5,0,.92-.29,1.58-.46,1.21.32,2.71.72,4.08.23,0,.22.28.18.45.23.23.3.22.85.45,1.15.26-.04.4.05.46.23,1.29.29,3.17.07,4.53.23.42.05.93.16,1.13.46.18-.12.37-.24.69-.23.82.16,1.1.87,1.81,1.15.49.04.1-.82.23-1.15-.11-.5-.76-.14-1.13-.23-.56-.13-.53-.22-.9-.46.18-1.04,1.82-.61,2.94-.69.64-.04.94-.42,1.58-.46,1.45.68,3.44.8,5.66.69-.24,1.08.53,1.16.91,1.61.66.12.73-.61,1.13-.92.15-.11.49.07.45-.23,1.27-.44,2.76-.17,3.62.46,1.15-.59,2.32.07,3.4.23.09.55-.42.5-.23,1.15.54.56.42-.35,1.13-.23.5.02-.39-.74.23-1.15.26.04.4-.05.45-.23.79-.18,1.71.7,2.27,0,.78.43,1.15,1.29,1.59,2.07,1.44-1.27,2.04.95,4.08.46.49-.03.09-.98.22-1.38.85-.18,1.92-.4,2.71,0-.19.61.43.41.46.92,0,.15-.12,1.1.68.92.63.2.5-.64.68-.92.1-.17.34-.31.45-.46.1-.15.18-.26.23-.46.78-.1,1.27.1,1.81.23.23.31.22.86.68.92.06.67-.51.7-.46,1.37,1.31.03,1.19-1.39,1.81-2.07,1.61-.17,2.62.26,3.86.46-.04.57.35.71.45,1.15.42-.03.14-.78.45-.92,1.61.04,1.53,1.81,3.4,1.61.42-.04.14-.78.45-.92.69.16.67-.4,1.36-.23.82.77,1.36,1.84,2.72,2.07.5-.48-.11-.65,0-1.38,1.25-.27,1.57.4,2.5.46-.13,1.2.95,1.17,2.04,1.15.67-.15-.22-.49,0-.92.93.02,1.33-.55,2.04-.46.68.09.7.53,1.13.92.43.38.8.55,1.14.92.41-.37-.16-.73.45-1.15.77-.06,1.31-.36,2.27-.23.31.3.22,1,.22,1.61.36.02.87-.11.91.23.42-.03.13-.78.45-.92,1.2,0,2.56-.14,3.17.46-.25,1.02.38,1.14.45,1.84,1.06,0,1.05-1.08,1.58-1.61,1.23-.18,1.77.35,2.49.69.36.81-.76.14-.67.69.06.48.99.06,1.13.46.49-.48-.11-.65,0-1.38h3.63c.77-.1.68.69,1.13.92.21-.14.19-.36.45-.46.31-.13.95.09,1.36,0,1.11.33,1.69,1.2,2.71,1.61,1.19.29,1.35-.48,2.27-.46-.08,1.15,1.18.95,1.81,1.38.31-.07.19-.57.23-.92h1.82c.05.25.44.16.45.46.24.61.9.78,1.14,1.38.49-.33.44-1.23,1.13-1.38,1.09.05,1.92.35,2.95.46-.18,1.02.88.79,1.13,1.38.99-.26,1.51-1.58,2.72-.92-.04,1.02-.41,1.45.69,1.61.18.65-.32.59-.23,1.15.57-.03.7-.43,1.14,0,.59-.3.71-.48.45-1.15h2.27c.35.49,1.01.66,1.59.92,1.14.03,2.23-.58,2.49.69.68.07,1.76-.26,1.81.46.23-.3.47-.62,1.36-.46.74-.06.47.89,1.13.92.82.07,1.47-.04,2.04-.23.06.37-.22.39-.23.69.64-.19.58.32,1.13.23.07.5.27.87.46,1.15.42.61,1.23.75,1.36,1.61-.42.45-.83.07-1.36,0-.73-.2-.47.59-.9.69-.4-.21-1.13-.08-1.36-.46-.11-.49.33-.44.68-.46-.06-.37.21-.4.23-.69-.18-.75-1.27-.55-1.82-.92-.53.06.02.85.23.92-.21.4-.83.38-.9.92-1.32-.1-2.31-.49-3.63-.69-.42.04-.13.78-.45.92-1.03-.42-2.71-.16-4.08-.23-.66-.66.44-.72.22-1.61-.64.04-.62.75-1.13.92-1.54-.14-2.72.3-3.63-.23-.11-.07-.41-.45-.45-.46-.08-.03-.59.25-.9.23.08,0-.16-.21-.23-.23-.73-.19-1.46-.28-2.71-.23-.23,0-.12.34,0,.46.3.3.01.12-.23.69-.63.19-.58-.33-1.13-.23-.69-.17-.43.63-1.13.46-.37-.71-.2-1.95-.67-2.53-.64-.23.33-.61-.23-.92-.32.02-.64.03-.68-.23-.32.37-1.08.29-.91,1.15-1.68-.48-1.1,1.34-2.49,1.15v-1.38c-.22-.31-.61-.46-.91-.69-1.28.38-1.49,1.85-2.94,2.07-.77.28-.5-.74-.91-.92-.08-.04-.41.06-.45,0-.14-.17-.14-.51-.23-.69-.04-.09-.18-.03-.23-.23-.04-.14.03-.31,0-.46-.62.1-1.49-.13-1.81,0-.33.14.18.36-.23.46-.84.24-.73-.48-1.13-.69-.73-.21-.32.75-.68.92-.53-.13-.75.09-1.14.23-.08.03-.4-.07-.46,0-.15.19-.16.4-.45.46-.61.11-1.34-.08-2.26,0-.05-.95-.27-1.72-1.36-1.61.03-.5.57-.49,1.13-.46-.09-.51-1.12-.09-1.59-.23-.64.04-.28,1.09-1.13.92-.07-.14-.57-.88,0-.92-.34-.27-.64-.58-.91-.92-.59-.07-.74.32-.67.92-1.58-.38-1.4,1.03-2.27,1.38-.69.16-.82-.23-1.36-.23.09-.39-.18-.44-.45-.46.11-.72-.32-.9-.46-1.38-1.19,1.39-3.29.47-5.66.69-.47.06-.45.61-.68.92h-1.81c-.2-.41-.64-.58-.45-1.38h-2.05c-.77-.17-.29.93-1.13.69-.68.3-.4-.46-.68-.69-.05-.04-.84-.4-.68-.92-.43.03-.16.76-.68.69-.41.03-.48-.28-.91-.23-.71-.11-.64.58-.91.92-.64-.04-.95-.42-1.59-.46.32-.95-.65-1.78,0-2.3ZM146.5,101.82c.71.17.85-.24,1.4-.23.31-.39-.13-1.27.69-1.61.55.14,1.79.76,1.86,0-.87-.37-2.29-.19-3.49-.23.08.91.01,1.7-.47,2.07Z"/>
    <polygon class="st7" points="153.11 77.02 167.31 88.97 171.31 95.72 156.39 82.64 153.11 77.02"/>
    <polygon class="st4" points="149.84 32.08 157.38 27.31 172.34 31.02 186.81 47.37 206.98 53.17 165.13 84.59 151.04 72.76 149.84 32.08"/>
    <polygon class="st4" points="185.88 41.12 204.9 48.29 163.33 79.55 149.24 67.72 185.88 41.12"/>
    <polygon class="st2" points="183.35 36.73 202.71 43.26 203.11 44.36 163.96 72.29 146.85 62.72 183.35 36.73"/>
    <path class="st9" d="M144.27,50.59l22.08-14.7.04,31.04s.09,5.73,3.09,7.5c3,1.77,5.56,1.85,7.85.44,2.3-1.41,29.65-21.71,29.65-21.71l.44.88-42.03,31.83-21.12-35.29Z"/>
    <polygon class="st7" points="132.04 43.23 144.27 50.59 165.39 85.89 151.28 74.32 132.04 43.23"/>
    <polygon class="st1" points="156.13 27.99 173.99 16.69 191.85 18.92 171.65 32.36 156.13 27.99"/>
    <polygon class="st1" points="151.39 30.99 166.35 35.9 144.27 50.59 132.04 43.23 151.39 30.99"/>
    <path class="st0" d="M170.72,33.01l-15.45-4.47-.93.56,15.58,4.47s.79-.54.79-.56Z"/>
    <path class="st9" d="M202.71,43.26s-23.11,17.51-27.75,19.98c-.88.41-1.57.57-2.09.57-.96-.01-1.39-.48-1.72-1.15-.31-.66-.38-1.49-.38-1.83,0-.99-.06-27.8-.06-27.83l-.79.56c.01,3.32-.22,26.35-.21,27.27,0,.79.23,3.96,3.16,4.03.73,0,1.57-.21,2.57-.69,4.88-2.62,27.42-19.76,27.67-19.83l-.4-1.09Z"/>
    <polygon class="st0" points="167.43 35.12 152.29 30.36 153.31 29.66 168.49 34.33 167.43 35.12"/>
    <path class="st9" d="M169.79,70.21c-2.05-1.88-2.27-4.8-2.27-6.2h0c0-.5.03-.82.03-.77h0l-.12-28.13,1.05-.79.12,28.97s-.02.26-.02.72h0c0,1.29.26,3.93,1.93,5.41h0c.79.7,1.7.94,2.62.94h0c.8,0,1.56-.18,2.12-.36h0c.55-.18.91-.36.92-.36h0l28.73-21.34.39.93-28.57,21.31s-1.65.88-3.6.89h-.03c-1.08,0-2.29-.3-3.3-1.21h0Z"/>
    <polygon class="st9" points="208.92 57.49 211.83 64.2 171.31 95.72 167.31 88.97 208.92 57.49"/>
    <path class="st5" d="M171.65,32.36l20.2-13.44,9.17,20.56-26.21,18.83s-1.45,1.01-2.39.58c-.94-.43-.81-1.46-.81-1.89s.04-24.64.04-24.64Z"/>
    <path class="st6" d="M165.85,144.32s7.82-1.42,7.57-12.76c-.25-11.34-11.34-13.35-11.34-13.35h-22.68v39.61h13.36v-12.66h0l7.82,12.6,12.93.1-7.65-13.54ZM157.02,136.16h-4.15v-7.89h3.94s3.31.47,3.31,4-3.1,3.89-3.1,3.89Z"/>
    <path class="st6" d="M101.87,118.24l13.15.07v23.87s.75,2.73,4.53,2.73,4.54-2.73,4.54-2.73v-23.94h13.01v26.94s-.66,12.49-17.54,12.74c-16.89.25-17.69-12.74-17.69-12.74v-26.94Z"/>
    <polygon class="st6" points="205.18 157.8 218.19 157.81 218.19 135.61 231.89 157.81 245.5 157.81 245.5 118.31 232.15 118.31 232.15 139.98 218.19 118.25 205.18 118.25 205.18 157.8"/>
    <polygon class="st6" points="299.68 118.25 294.38 128.82 288.52 118.25 275.74 118.25 287.7 142.73 287.7 157.83 301.29 157.83 301.29 142.73 313.26 118.31 299.68 118.25"/>
    <polygon class="st8" points="46.69 144.66 46.69 118.24 32.29 118.24 32.29 144.66 32.29 157.75 46.69 157.75 59.23 157.75 59.23 144.66 46.69 144.66"/>
    <polygon class="st6" points="274.5 118.24 247.54 118.24 247.54 128.82 254.31 128.82 254.31 157.81 267.33 157.81 267.33 128.82 274.5 128.82 274.5 118.24"/>
    <polygon class="st6" points="202.66 128.87 202.66 118.29 188.65 118.29 188.65 118.25 175.64 118.25 175.64 133.42 175.58 133.42 175.58 142.85 175.64 142.85 175.64 157.82 175.69 157.82 188.65 157.82 202.66 157.82 202.66 146.94 188.65 146.94 188.64 142.77 202.66 142.77 202.66 133.37 188.65 133.42 188.65 128.87 202.66 128.87"/>
    <path class="st6" d="M89.63,157.8h13.61l-14.36-39.55h-13.45l-14.36,39.55h13.61l1.13-3.7h12.69l1.13,3.7ZM78.7,144.66l3.46-11.28,3.45,11.28h-6.91Z"/>
    <g>
      <path class="st11" d="M32.24,171.42h2.04c.82,0,1.45.09,1.89.28.44.19.79.48,1.05.87.26.39.38.83.38,1.31,0,.45-.11.85-.34,1.22-.22.37-.55.67-.99.89.54.18.95.39,1.24.63.29.24.52.53.68.87.16.34.24.71.24,1.1,0,.81-.3,1.49-.91,2.05-.61.56-1.42.84-2.45.84h-2.85v-10.06ZM33.26,172.4v3.22h.59c.72,0,1.25-.06,1.59-.19.34-.13.61-.34.8-.62.2-.28.3-.59.3-.93,0-.46-.17-.82-.5-1.08-.33-.26-.86-.39-1.58-.39h-1.2ZM33.26,176.64v3.86h1.28c.76,0,1.31-.07,1.67-.22.35-.14.64-.37.85-.67.21-.3.32-.64.32-.99,0-.45-.15-.84-.45-1.17s-.71-.56-1.24-.68c-.35-.08-.97-.12-1.84-.12h-.59Z"/>
      <path class="st11" d="M44.73,171.42l4.83,10.06h-1.12l-1.63-3.31h-4.46l-1.61,3.31h-1.15l4.9-10.06h.25ZM44.6,173.56l-1.78,3.64h3.54l-1.77-3.64Z"/>
      <path class="st11" d="M51.17,171.42h1.04v9.09h3.99v.97h-5.02v-10.06Z"/>
      <path class="st11" d="M62.06,171.42l4.83,10.06h-1.12l-1.63-3.31h-4.46l-1.61,3.31h-1.15l4.9-10.06h.25ZM61.93,173.56l-1.78,3.64h3.54l-1.77-3.64Z"/>
      <path class="st11" d="M67.11,171.42h1.19l2.65,4.15,2.61-4.15h1.2l-3.28,5.25v4.81h-1.02v-4.81l-3.35-5.25Z"/>
      <path class="st11" d="M80.41,171.42l4.83,10.06h-1.12l-1.63-3.31h-4.46l-1.61,3.31h-1.15l4.9-10.06h.25ZM80.28,173.56l-1.78,3.64h3.54l-1.77-3.64Z"/>
      <path class="st11" d="M96.84,173.11l-.8.74c-.58-.55-1.21-.97-1.9-1.25-.69-.29-1.36-.43-2.01-.43-.81,0-1.59.19-2.32.58s-1.3.91-1.71,1.58c-.4.66-.61,1.36-.61,2.1s.21,1.48.63,2.16c.42.68,1,1.22,1.73,1.61s1.54.58,2.42.58c1.07,0,1.97-.29,2.7-.88.74-.58,1.17-1.34,1.31-2.27h-3.3v-.97h4.47c0,1.55-.48,2.79-1.43,3.7s-2.2,1.37-3.78,1.37c-1.92,0-3.43-.63-4.55-1.9-.86-.97-1.29-2.1-1.29-3.38,0-.95.25-1.84.74-2.66.49-.82,1.17-1.46,2.03-1.93.86-.46,1.83-.69,2.92-.69.88,0,1.7.15,2.48.46.77.31,1.53.8,2.27,1.48Z"/>
      <path class="st11" d="M99.43,171.42h5.94v.98h-4.9v3.15h4.86v.98h-4.86v3.95h4.86v.98h-5.9v-10.06Z"/>
      <path class="st11" d="M110.36,171.42h1.13l3.43,7.77,3.49-7.77h1.13l-4.51,10.06h-.23l-4.44-10.06Z"/>
      <path class="st11" d="M125.63,171.17c1.57,0,2.88.51,3.94,1.52s1.59,2.27,1.59,3.75-.53,2.72-1.58,3.75c-1.05,1.03-2.34,1.54-3.86,1.54s-2.83-.51-3.89-1.53c-1.06-1.02-1.59-2.26-1.59-3.71,0-.97.24-1.86.72-2.69s1.14-1.47,1.97-1.94c.83-.47,1.73-.7,2.7-.7ZM125.68,172.14c-.77,0-1.49.19-2.18.58-.69.39-1.22.91-1.61,1.57-.39.66-.58,1.39-.58,2.2,0,1.2.43,2.21,1.28,3.03s1.88,1.24,3.09,1.24c.8,0,1.55-.19,2.23-.57.68-.38,1.22-.9,1.6-1.55.38-.66.58-1.39.58-2.19s-.19-1.52-.58-2.17-.92-1.16-1.62-1.55c-.7-.39-1.43-.58-2.22-.58Z"/>
      <path class="st11" d="M133.09,171.42h1.04v10.06h-1.04v-10.06Z"/>
      <path class="st11" d="M136.56,171.42h2.06c1.15,0,1.93.05,2.34.14.61.14,1.12.43,1.5.88.39.45.58,1,.58,1.66,0,.55-.13,1.03-.4,1.44-.27.42-.64.73-1.14.94-.49.21-1.17.32-2.04.33l3.73,4.67h-1.28l-3.73-4.67h-.59v4.67h-1.04v-10.06ZM137.59,172.4v3.42h1.78c.69.01,1.2-.05,1.53-.18.33-.13.59-.33.78-.61.19-.28.28-.59.28-.94s-.09-.64-.28-.92c-.19-.28-.44-.47-.74-.59-.31-.12-.81-.18-1.52-.18h-1.83Z"/>
      <path class="st11" d="M145.11,171.42h1.04v10.06h-1.04v-10.06Z"/>
      <path class="st11" d="M148.52,171.42h5.94v.98h-4.9v3.15h4.86v.98h-4.86v3.95h4.86v.98h-5.9v-10.06Z"/>
      <path class="st11" d="M155.18,179.6l.88-.51c.62,1.11,1.34,1.66,2.15,1.66.35,0,.67-.08.98-.24s.54-.37.7-.63c.16-.26.24-.54.24-.84,0-.34-.12-.67-.35-.99-.32-.45-.92-.98-1.77-1.61-.86-.63-1.4-1.09-1.61-1.37-.37-.47-.55-.99-.55-1.54,0-.44.11-.84.32-1.2.22-.36.52-.64.91-.85.39-.21.82-.31,1.28-.31.49,0,.95.12,1.37.35.42.24.87.67,1.35,1.3l-.85.62c-.39-.5-.72-.83-1-.99-.27-.16-.57-.24-.9-.24-.42,0-.76.12-1.02.37-.27.25-.4.55-.4.91,0,.22.05.43.14.64.09.21.27.43.51.67.14.13.58.46,1.34,1,.9.64,1.51,1.21,1.85,1.72.33.5.5,1,.5,1.51,0,.73-.29,1.36-.86,1.9-.57.54-1.26.81-2.08.81-.63,0-1.2-.16-1.71-.49-.51-.33-.98-.87-1.42-1.64Z"/>
      <path class="st11" d="M166.62,177.28h3.87v.83h-3.87v-.83Z"/>
      <path class="st11" d="M175.42,171.42h1.13l3.43,7.77,3.49-7.77h1.13l-4.51,10.06h-.23l-4.44-10.06Z"/>
      <path class="st11" d="M186.34,171.42h5.94v.98h-4.9v3.15h4.86v.98h-4.86v3.95h4.86v.98h-5.9v-10.06Z"/>
      <path class="st11" d="M204.06,173.11l-.8.74c-.58-.55-1.21-.97-1.9-1.25-.69-.29-1.36-.43-2.01-.43-.81,0-1.59.19-2.32.58-.74.39-1.3.91-1.71,1.58-.4.66-.61,1.36-.61,2.1s.21,1.48.63,2.16c.42.68,1,1.22,1.73,1.61.74.39,1.54.58,2.42.58,1.07,0,1.97-.29,2.7-.88.74-.58,1.17-1.34,1.31-2.27h-3.3v-.97h4.47c0,1.55-.49,2.79-1.43,3.7s-2.2,1.37-3.78,1.37c-1.92,0-3.43-.63-4.55-1.9-.86-.97-1.29-2.1-1.29-3.38,0-.95.25-1.84.74-2.66.49-.82,1.17-1.46,2.03-1.93.86-.46,1.83-.69,2.92-.69.88,0,1.7.15,2.48.46.77.31,1.53.8,2.27,1.48Z"/>
      <path class="st11" d="M206.66,171.42h5.94v.98h-4.9v3.15h4.86v.98h-4.86v3.95h4.86v.98h-5.9v-10.06Z"/>
      <path class="st11" d="M214.39,181.48v-10.06h.23l6.9,7.71v-7.71h1.02v10.06h-.23l-6.84-7.62v7.62h-1.07Z"/>
      <path class="st11" d="M228.26,171.42h1.13l3.43,7.77,3.49-7.77h1.13l-4.51,10.06h-.23l-4.44-10.06Z"/>
      <path class="st11" d="M242.25,171.42l4.83,10.06h-1.12l-1.63-3.31h-4.46l-1.61,3.31h-1.16l4.9-10.06h.25ZM242.12,173.56l-1.78,3.64h3.54l-1.77-3.64Z"/>
      <path class="st11" d="M248.7,181.48v-10.06h.23l6.9,7.71v-7.71h1.02v10.06h-.23l-6.84-7.62v7.62h-1.07Z"/>
      <path class="st11" d="M262.77,171.42h1.06l2.12,7.25,2.97-7.25h.21l2.94,7.25,2.15-7.25h1.06l-2.98,10.06h-.19l-3.07-7.61-3.13,7.61h-.19l-2.94-10.06Z"/>
      <path class="st11" d="M277.21,171.42h5.94v.98h-4.9v3.15h4.86v.98h-4.86v3.95h4.86v.98h-5.9v-10.06Z"/>
      <path class="st11" d="M294.93,173.11l-.8.74c-.58-.55-1.21-.97-1.9-1.25-.69-.29-1.36-.43-2.01-.43-.81,0-1.59.19-2.32.58-.74.39-1.3.91-1.71,1.58-.4.66-.61,1.36-.61,2.1s.21,1.48.63,2.16c.42.68,1,1.22,1.73,1.61.74.39,1.54.58,2.42.58,1.07,0,1.97-.29,2.7-.88.74-.58,1.17-1.34,1.31-2.27h-3.3v-.97h4.47c0,1.55-.49,2.79-1.43,3.7s-2.2,1.37-3.78,1.37c-1.92,0-3.43-.63-4.55-1.9-.86-.97-1.29-2.1-1.29-3.38,0-.95.25-1.84.74-2.66.49-.82,1.17-1.46,2.03-1.93.86-.46,1.83-.69,2.92-.69.88,0,1.7.15,2.48.46.77.31,1.53.8,2.27,1.48Z"/>
      <path class="st11" d="M297.52,171.42h5.94v.98h-4.9v3.15h4.86v.98h-4.86v3.95h4.86v.98h-5.9v-10.06Z"/>
      <path class="st11" d="M305.25,181.48v-10.06h.23l6.9,7.71v-7.71h1.02v10.06h-.23l-6.84-7.62v7.62h-1.07Z"/>
    </g>
  </g>
  <g id="Layer_2" class="st12">
    <text class="st10" transform="translate(30.96 181.48) scale(1.03 1)"><tspan x="0" y="0">BALAYAGE VOIRIES - VEGEN VAN WEGEN</tspan></text>
  </g>
</svg>